<svg aria-hidden="true" style="position: absolute; width: 0; height: 0; overflow: hidden;" version="1.1" xmlns="http://www.w3.org/2000/svg" xmlns:xlink="http://www.w3.org/1999/xlink">
<defs>
<symbol id="icon-basket" viewBox="0 0 32 32">
<path stroke-linejoin="miter" stroke-linecap="butt" stroke-miterlimit="4" stroke-width="0.4" d="M24.966 10.769l0.058 0.098h5.477c0.717 0 1.3 0.583 1.3 1.3v0.937c0 6.054-1.365 12.027-3.991 17.476l-0.259 0.525c-0.104 0.209-0.264 0.386-0.463 0.509s-0.429 0.188-0.663 0.187h-20.846c-0.234-0.001-0.464-0.067-0.663-0.191s-0.359-0.298-0.465-0.507c-2.795-5.589-4.25-11.753-4.25-18.002v-0.934c0-0.717 0.583-1.3 1.3-1.3h5.477l0.058-0.098 5.983-9.977 1.489 0.891-5.51 9.184h14.006l-0.182-0.304-5.331-8.88 1.491-0.892 5.984 9.978z"></path>
<path d="M10.4 16.2c0-0.552 0.448-1 1-1h10c0.552 0 1 0.448 1 1v7c0 2.209-1.791 4-4 4h-4c-2.209 0-4-1.791-4-4v-7z"></path>
</symbol>
<symbol id="icon-burger-menu" viewBox="0 0 32 32">
<path d="M5.333 23.027v-1.333h21.333v1.333h-21.333zM5.333 16.667v-1.333h21.333v1.333h-21.333zM5.333 10.307v-1.333h21.333v1.333h-21.333z"></path>
</symbol>
<symbol id="icon-close-bord" viewBox="0 0 32 32">
<path stroke-linejoin="miter" stroke-linecap="butt" stroke-miterlimit="4" stroke-width="1.1429" d="M4.571 0.571h22.857c2.209 0 4 1.791 4 4v22.857c0 2.209-1.791 4-4 4h-22.857c-2.209 0-4-1.791-4-4v-22.857c0-2.209 1.791-4 4-4z"></path>
<path stroke-linejoin="round" stroke-linecap="round" stroke-miterlimit="4" stroke-width="1.1429" d="M6.857 6.857l18.286 18.286M6.857 25.143l18.286-18.286"></path>
</symbol>
<symbol id="icon-close" viewBox="0 0 32 32">
<path stroke-linejoin="round" stroke-linecap="round" stroke-miterlimit="4" stroke-width="1.7778" d="M1.778 1.778l28.444 28.444M1.778 30.222l28.444-28.444"></path>
</symbol>
<symbol id="icon-edit" viewBox="0 0 32 32">
<path d="M6.667 25.333h1.9l13.033-13.033-1.9-1.9-13.033 13.033v1.9zM4 28v-5.667l17.6-17.567c0.267-0.244 0.561-0.433 0.884-0.567s0.661-0.2 1.016-0.2c0.355 0 0.699 0.067 1.033 0.2s0.623 0.333 0.867 0.6l1.833 1.867c0.267 0.244 0.461 0.533 0.584 0.867s0.184 0.667 0.183 1c0 0.356-0.061 0.695-0.183 1.017s-0.316 0.617-0.584 0.883l-17.567 17.567h-5.667zM20.633 11.367l-0.933-0.967 1.9 1.9-0.967-0.933z"></path>
</symbol>
<symbol id="icon-logout" viewBox="0 0 32 32">
<path d="M6.667 28c-0.733 0-1.361-0.261-1.883-0.783s-0.783-1.15-0.784-1.884v-18.667c0-0.733 0.261-1.361 0.784-1.883s1.15-0.783 1.883-0.784h9.333v2.667h-9.333v18.667h9.333v2.667h-9.333zM21.333 22.667l-1.833-1.933 3.4-3.4h-10.9v-2.667h10.9l-3.4-3.4 1.833-1.933 6.667 6.667-6.667 6.667z"></path>
</symbol>
<symbol id="icon-search" viewBox="0 0 32 32">
<path stroke-linejoin="round" stroke-linecap="round" stroke-miterlimit="4" stroke-width="2.4" d="M21.333 20.384l-0.943 0.943 8.004 8.004 0.943-0.943-8.004-8.004z"></path>
<path stroke-linejoin="round" stroke-linecap="round" stroke-miterlimit="4" stroke-width="2.4" d="M13.334 24c5.891 0 10.667-4.776 10.667-10.667s-4.776-10.667-10.667-10.667c-5.891 0-10.667 4.776-10.667 10.667s4.776 10.667 10.667 10.667z"></path>
</symbol>
<symbol id="icon-register" viewBox="0 0 12 32">
<path stroke-linejoin="round" stroke-linecap="round" stroke-miterlimit="4" stroke-width="1.6842" d="M1.685 31.158l8.421-15.158-8.421-15.158"></path>
</symbol>
<symbol id="icon-login" viewBox="0 0 32 32">
<path d="M22.721 8.965c0.12-0.115 0.261-0.205 0.415-0.266s0.32-0.090 0.486-0.087c0.166 0.003 0.33 0.039 0.482 0.106s0.29 0.162 0.404 0.282l5.878 6.125c0.226 0.235 0.351 0.548 0.351 0.874s-0.126 0.639-0.351 0.874l-5.878 6.125c-0.115 0.12-0.252 0.215-0.404 0.282s-0.316 0.103-0.482 0.106c-0.166 0.003-0.331-0.026-0.485-0.086s-0.296-0.151-0.415-0.265c-0.12-0.115-0.215-0.252-0.282-0.404s-0.103-0.315-0.106-0.481c-0.003-0.166 0.026-0.331 0.086-0.485s0.151-0.296 0.265-0.415l3.825-3.987h-11.734c-0.335 0-0.656-0.133-0.893-0.37s-0.37-0.558-0.37-0.893 0.133-0.656 0.37-0.893c0.237-0.237 0.558-0.37 0.893-0.37h11.736l-3.827-3.987c-0.232-0.242-0.358-0.566-0.351-0.9s0.147-0.653 0.388-0.885z"></path>
<path d="M1.263 2.526c0-0.335 0.133-0.656 0.37-0.893s0.558-0.37 0.893-0.37h15.924c0.335 0 0.656 0.133 0.893 0.37s0.37 0.558 0.37 0.893v5.053c0 0.335-0.133 0.656-0.37 0.893s-0.558 0.37-0.893 0.37-0.656-0.133-0.893-0.37c-0.237-0.237-0.37-0.558-0.37-0.893v-3.789h-13.398v24.421h13.396v-3.789c0-0.335 0.133-0.656 0.37-0.893s0.558-0.37 0.893-0.37 0.656 0.133 0.893 0.37c0.237 0.237 0.37 0.558 0.37 0.893v5.053c0 0.335-0.133 0.656-0.37 0.893s-0.558 0.37-0.893 0.37h-15.923c-0.335 0-0.656-0.133-0.893-0.37s-0.37-0.558-0.37-0.893v-26.947z"></path>
</symbol>
<symbol id="icon-linkedin" viewBox="0 0 33 32">
<path fill="#e9ddce" style="fill: var(--color1, #e9ddce)" d="M20.183 11.961c-0.677 0-1.177 0.171-1.57 0.386-0.063-0.224-0.269-0.387-0.513-0.338h-2.978c-0.294-0.049-0.533 0.19-0.442 0.499v10.977c-0.091 0.279 0.148 0.519 0.442 0.499h2.978c0.294 0.020 0.533-0.22 0.533-0.514l-0.001-6.634c-0.001-0.003-0.012-0.32 0.189-0.539 0.161-0.174 0.437-0.262 0.819-0.262 0.637 0 0.92 0.26 1.026 0.843v6.592c-0.105 0.294 0.134 0.534 0.428 0.514h3.138c0.294 0.020 0.533-0.22 0.427-0.514v-6.814c0.105-3.465-2.363-4.695-4.477-4.695zM23.698 22.985h-2.072v-6.108c0-1.178-0.761-1.909-1.986-1.909-0.692 0-1.231 0.204-1.603 0.605-0.516 0.559-0.476 1.267-0.365 1.425v5.987h-2.018v-9.959h1.912v0.335c-0.001 0.1 0.027 0.198 0.079 0.283s0.128 0.153 0.217 0.198c0.090 0.044 0.19 0.062 0.289 0.052s0.194-0.049 0.273-0.11l0.14-0.108c0.404-0.318 0.822-0.649 1.619-0.649 0.824 0 3.516 0.262 3.516 3.629l-0.001 6.329zM11.686 6.985c-1.12 0-2.030 0.91-2.030 2.030s0.91 2.030 2.030 2.030c1.12 0 2.030-0.91 2.030-2.030s-0.91-2.030-2.030-2.030zM11.686 9.979c-0.531 0-0.964-0.433-0.964-0.964s0.433-0.964 0.964-0.964c0.531 0 0.964 0.433 0.964 0.964s-0.433 0.964-0.964 0.964zM13.111 11.96h-2.962c-0.294 0-0.533 0.239-0.459 0.548v10.977c-0.074 0.279 0.165 0.519 0.459 0.499h2.962c0.294 0.020 0.533-0.22 0.533-0.514v-10.977c0-0.141-0.056-0.277-0.156-0.377s-0.236-0.156-0.377-0.156zM12.683 22.985h-2.002v-9.959h2.002v9.959z"></path>
<path fill="#e9ddce" style="fill: var(--color1, #e9ddce)" d="M16.675 0c-8.823 0-16 7.177-16 16s7.177 16 16 16c8.823 0 16-7.177 16-16s-7.177-16-16-16zM16.675 30.934c-8.234 0-14.934-6.7-14.934-14.934s6.7-14.934 14.934-14.934c8.235 0 14.934 6.7 14.934 14.934s-6.7 14.934-14.934 14.934z"></path>
</symbol>
<symbol id="icon-facebook" viewBox="0 0 33 32">
<path fill="#e9ddce" style="fill: var(--color1, #e9ddce)" d="M16.605 0c-8.823 0-16 7.177-16 16s7.177 16 16 16c8.823 0 16-7.177 16-16s-7.177-16-16-16zM16.605 30.934c-8.235 0-14.934-6.7-14.934-14.934s6.7-14.934 14.934-14.934c8.235 0 14.934 6.7 14.934 14.934s-6.7 14.934-14.934 14.934z"></path>
<path fill="#e9ddce" style="fill: var(--color1, #e9ddce)" d="M15.12 11.303v2.336h-1.509v2.855h1.509v8.487h3.102v-8.487h2.081c0 0 0.196-1.369 0.29-2.867h-2.359v-1.951c0-0.293 0.338-0.685 0.674-0.685h1.689v-2.974h-2.298c-3.255 0-3.178 2.858-3.178 3.286z"></path>
</symbol>
<symbol id="icon-instagram" viewBox="0 0 31 32">
<path fill="#e9ddce" style="fill: var(--color1, #e9ddce)" d="M15.406 1.154c-8.187 0-14.846 6.659-14.846 14.846s6.659 14.846 14.846 14.846c8.187 0 14.846-6.659 14.846-14.846s-6.659-14.846-14.846-14.846zM15.406 29.858c-7.641 0-13.857-6.217-13.857-13.857s6.217-13.857 13.857-13.857c7.641 0 13.857 6.217 13.857 13.857s-6.217 13.857-13.857 13.857z"></path>
<path fill="#e9ddce" style="fill: var(--color1, #e9ddce)" d="M15.406 11.991c-0.793 0-1.568 0.235-2.227 0.676s-1.173 1.067-1.476 1.799c-0.303 0.733-0.383 1.539-0.228 2.316s0.536 1.492 1.097 2.052c0.561 0.561 1.275 0.942 2.053 1.097s1.584 0.075 2.316-0.228c0.732-0.303 1.359-0.817 1.799-1.477s0.676-1.434 0.676-2.227c-0.001-1.063-0.424-2.082-1.176-2.833s-1.77-1.174-2.833-1.176zM15.406 18.963c-0.586 0-1.159-0.174-1.646-0.499s-0.867-0.788-1.091-1.33c-0.224-0.541-0.283-1.137-0.169-1.712s0.396-1.103 0.811-1.517c0.414-0.414 0.942-0.697 1.517-0.811s1.171-0.056 1.712 0.169 1.004 0.604 1.33 1.091c0.326 0.487 0.499 1.060 0.499 1.646 0 0.786-0.312 1.539-0.868 2.095s-1.309 0.868-2.095 0.868zM19.589 7.111h-8.366c-1.248 0.001-2.444 0.498-3.326 1.38s-1.378 2.078-1.38 3.326v8.366c0.001 1.248 0.498 2.444 1.38 3.326s2.078 1.378 3.326 1.38h8.366c1.248-0.001 2.444-0.498 3.326-1.38s1.378-2.078 1.38-3.326v-8.366c-0.001-1.248-0.498-2.444-1.38-3.326s-2.078-1.378-3.326-1.38zM23.25 20.183c0 0.971-0.386 1.902-1.072 2.588s-1.617 1.072-2.588 1.072h-8.366c-0.971 0-1.902-0.386-2.588-1.072s-1.072-1.617-1.072-2.588v-8.366c0-0.971 0.386-1.902 1.072-2.588s1.617-1.072 2.588-1.072h8.366c0.971 0 1.902 0.386 2.588 1.072s1.072 1.617 1.072 2.588v8.366zM20.809 11.469c0 0.172-0.051 0.341-0.147 0.484s-0.232 0.255-0.391 0.321c-0.159 0.066-0.334 0.083-0.503 0.050s-0.324-0.117-0.446-0.238-0.205-0.277-0.238-0.446c-0.034-0.169-0.016-0.344 0.050-0.504s0.178-0.295 0.321-0.391c0.143-0.096 0.312-0.147 0.484-0.147 0.231 0 0.453 0.092 0.616 0.255s0.255 0.385 0.255 0.616z"></path>
</symbol>
<symbol id="icon-chat" viewBox="0 0 34 32">
<path fill="none" stroke="#fff" style="stroke: var(--color1, #fff)" stroke-linejoin="round" stroke-linecap="round" stroke-miterlimit="4" stroke-width="1.1429" d="M28.22 1.143h-22.154c-1.306 0-2.558 0.569-3.481 1.582s-1.442 2.387-1.442 3.82v13.507c0 1.433 0.519 2.807 1.442 3.82s2.175 1.582 3.481 1.582h13.538l7.385 5.403v-5.403h1.231c1.306 0 2.558-0.569 3.481-1.582s1.442-2.387 1.442-3.82v-13.507c0-1.433-0.519-2.807-1.442-3.82s-2.175-1.582-3.481-1.582z"></path>
<path fill="none" stroke="#fff" style="stroke: var(--color1, #fff)" stroke-linejoin="round" stroke-linecap="round" stroke-miterlimit="4" stroke-width="1.1429" d="M9.758 14.65c0 0.358-0.13 0.702-0.36 0.955s-0.544 0.396-0.87 0.396c-0.326 0-0.639-0.142-0.87-0.396s-0.36-0.597-0.36-0.955c0-0.358 0.13-0.702 0.36-0.955s0.544-0.396 0.87-0.396 0.639 0.142 0.87 0.396c0.231 0.253 0.36 0.597 0.36 0.955zM17.143 14.65c0 0.358-0.13 0.702-0.361 0.955s-0.544 0.396-0.87 0.396-0.639-0.142-0.87-0.396c-0.231-0.253-0.36-0.597-0.36-0.955s0.13-0.702 0.36-0.955c0.231-0.253 0.544-0.396 0.87-0.396s0.64 0.142 0.87 0.396c0.231 0.253 0.361 0.597 0.361 0.955zM24.528 14.65c0 0.358-0.13 0.702-0.36 0.955s-0.544 0.396-0.87 0.396c-0.326 0-0.64-0.142-0.87-0.396s-0.361-0.597-0.361-0.955c0-0.358 0.13-0.702 0.361-0.955s0.544-0.396 0.87-0.396c0.326 0 0.639 0.142 0.87 0.396s0.36 0.597 0.36 0.955z"></path>
</symbol>
<symbol id="icon-arrow-right" viewBox="0 0 61 32">
<path stroke-linejoin="round" stroke-linecap="round" stroke-miterlimit="4" stroke-width="2.9091" d="M1.455 16.027l57.5-0.027M37.049 30.545l22.587-14.545-22.587-14.545"></path>
</symbol>
</defs>
</svg>

